Coordinates
version=1
nRows=7
nColumns=63
inDegrees=yes

Units are S.I. units (second, meters, Newtons, ...)
If the header above contains a line with 'inDegrees', this indicates whether rotational values are in degrees (yes) or radians (no).

endheader
time	pelvis_tilt	pelvis_list	pelvis_rotation	pelvis_tx	pelvis_ty	pelvis_tz	hip_flexion_r	hip_adduction_r	hip_rotation_r	knee_angle_r	knee_angle_r_beta	ankle_angle_r	subtalar_angle_r	mtp_angle_r	hip_flexion_l	hip_adduction_l	hip_rotation_l	knee_angle_l	knee_angle_l_beta	ankle_angle_l	subtalar_angle_l	mtp_angle_l	L5_S1_Flex_Ext	L5_S1_Lat_Bending	L5_S1_axial_rotation	L4_L5_Flex_Ext	L4_L5_Lat_Bending	L4_L5_axial_rotation	L3_L4_Flex_Ext	L3_L4_Lat_Bending	L3_L4_axial_rotation	L2_L3_Flex_Ext	L2_L3_Lat_Bending	L2_L3_axial_rotation	L1_L2_Flex_Ext	L1_L2_Lat_Bending	L1_L2_axial_rotation	L1_T12_Flex_Ext	L1_T12_Lat_Bending	L1_T12_axial_rotation	Abs_r3	Abs_r2	Abs_r1	Abs_t1	Abs_t2	neck_flexion	neck_bending	neck_rotation	arm_flex_r	arm_add_r	arm_rot_r	elbow_flex_r	pro_sup_r	wrist_flex_r	wrist_dev_r	arm_flex_l	arm_add_l	arm_rot_l	elbow_flex_l	pro_sup_l	wrist_flex_l	wrist_dev_l
      0.00000000	      2.78666302	     -4.32030170	    118.15355338	      0.30144950	      0.64954283	      0.87469610	     -2.76632862	     -1.22501681	    -13.69387014	      6.04733633	      0.10554593	     29.74742158	     12.70173765	      0.00000000	     -2.26796113	      1.04664784	      6.04419262	      3.38520572	      0.05908299	     24.01326483	      1.63549183	      0.00000000	      0.12945105	      0.16439057	     -1.57786293	      0.24040354	      0.21863946	     -1.67647936	      0.21267512	      0.39969923	     -1.67647936	      0.14794960	      0.39969923	     -1.38063006	      0.12020824	      0.33522525	     -1.28201363	      0.07396833	      0.25464099	     -1.18339720	      0.92465588	      1.85961900	     -8.77560027	      0.00000000	      0.00000000	     26.10857594	      0.59815940	      4.79543703	     12.75521467	     -4.90925180	     70.38891758	     36.75155313	     51.86555206	      2.79850544	     16.11623140	     10.03731609	     -8.61470623	     51.07469106	     50.95744648	      7.80982886	    -48.44796344	     17.54739333
      0.01886792	      2.23754849	     -4.56134403	    117.89160977	      0.30202509	      0.65084397	      0.87464894	     -2.89340304	     -1.81804068	    -13.93948370	      5.61182109	      0.09794476	     30.24469184	     13.82438561	      0.00000000	     -2.33328795	      1.66716468	      6.70069450	      3.33173797	      0.05814980	     23.59764641	      0.68683839	      0.00000000	      0.13028364	      0.07618647	     -1.61289510	      0.24194974	      0.10132801	     -1.71370104	      0.21404299	      0.18523979	     -1.71370104	      0.14890117	      0.18523979	     -1.41128321	      0.12098138	      0.15535946	     -1.31047727	      0.07444407	      0.11801285	     -1.20967132	      0.93060299	      0.86183662	     -8.97043865	      0.00000000	      0.00000000	     26.57913165	      0.91904568	      4.34042976	     13.37278177	     -4.18239081	     72.53632264	     35.77737473	     56.04417670	      1.97550034	     14.93226749	      9.25519128	     -8.09591073	     49.49533426	     48.44356514	      3.95903629	    -52.26261580	     17.81220297
      0.03773585	      1.81553554	     -4.79262111	    117.83394202	      0.30231004	      0.65179577	      0.87456380	     -3.02064817	     -2.27154300	    -14.31965713	      5.18076102	      0.09042134	     30.41784283	     14.71499889	      0.00000000	     -2.31750548	      2.18295151	      8.19963026	      3.34037073	      0.05830047	     23.00044681	     -1.28233128	      0.00000000	      0.13541503	      0.00910245	     -1.68305017	      0.25147925	      0.01210626	     -1.78824080	      0.22247335	      0.02213170	     -1.78824080	      0.15476583	      0.02213170	     -1.47266890	      0.12574639	      0.01856172	     -1.36747826	      0.07737615	      0.01409970	     -1.26228763	      0.96725599	      0.10296876	     -9.36062012	      0.00000000	      0.00000000	     26.66960889	      1.25954264	      4.18859832	     13.44027053	     -3.55901175	     72.66621543	     35.09557923	     61.60320194	      1.66687043	     14.38774406	      8.13554737	     -7.35904060	     46.40123255	     46.61139836	      2.29584698	    -54.30997140	     18.35842084
      0.05660377	      1.46666340	     -5.03189985	    117.69397075	      0.30269674	      0.65253332	      0.87480737	     -3.09573676	     -2.66361055	    -14.12230224	      4.73760183	      0.08268675	     30.26439988	     14.90589754	      0.00000000	     -2.21916062	      2.61943697	      8.21242869	      3.37966033	      0.05898620	     22.75370934	     -1.39297496	      0.00000000	      0.13894113	     -0.03923207	     -1.67140013	      0.25802756	     -0.05217866	     -1.77586263	      0.22826637	     -0.09538887	     -1.77586263	      0.15879581	     -0.09538887	     -1.46247511	      0.12902073	     -0.08000205	     -1.35801260	      0.07939096	     -0.06077048	     -1.25355009	      0.99244256	     -0.44380107	     -9.29582608	      0.00000000	      0.00000000	     26.57701207	      1.17714944	      3.98181623	     13.59516886	     -3.23901557	     73.12347771	     34.61486507	     62.31238135	      1.39008983	     14.41288506	      7.94796098	     -6.92566952	     45.77654212	     45.17080517	      1.44230202	    -54.52513526	     19.23686342
      0.07547170	      1.13903778	     -5.07334355	    117.31105941	      0.30368065	      0.65317006	      0.87453559	     -3.26704132	     -2.92098253	    -13.38274714	      4.44797415	      0.07763179	     29.92718830	     14.42375328	      0.00000000	     -2.40620833	      2.94278096	      8.78822161	      3.24196014	      0.05658288	     22.18358884	     -2.71182222	      0.00000000	      0.11508812	     -0.08213721	     -1.65104364	      0.21373015	     -0.10924249	     -1.75423387	      0.18907827	     -0.19970841	     -1.75423387	      0.13153421	     -0.19970841	     -1.44466318	      0.10687083	     -0.16749420	     -1.34147296	      0.06576135	     -0.12723054	     -1.23828273	      0.82206294	     -0.92915255	     -9.18260941	      0.00000000	      0.00000000	     26.19781620	      1.20712137	      3.63001197	     13.49387192	     -2.86190364	     72.52015951	     34.29261069	     68.89023905	      0.74683641	     13.12944513	      7.38773955	     -6.39812634	     43.08530817	     44.57251661	      1.65313162	    -55.73745781	     21.66160392
      0.09433962	      0.88080815	     -5.13466074	    117.03003581	      0.30456762	      0.65362975	      0.87452646	     -3.42093164	     -3.10649566	    -12.27205274	      4.10412248	      0.07163045	     29.39478916	     13.32351236	      0.00000000	     -2.45027356	      3.15480503	      7.46648585	      3.24000347	      0.05654873	     22.24888058	     -1.12526918	      0.00000000	      0.10341702	     -0.10875820	     -1.62797154	      0.19205575	     -0.14464840	     -1.72971976	      0.16990382	     -0.26443468	     -1.72971976	      0.11819531	     -0.26443468	     -1.42447510	      0.09603304	     -0.22177971	     -1.32272688	      0.05909248	     -0.16846645	     -1.22097866	      0.73869743	     -1.23029447	     -9.05428933	      0.00000000	      0.00000000	     25.64966766	      1.16751085	      3.70479488	     13.87377267	     -2.65335491	     74.00274923	     33.90488484	     67.68415972	      0.19823639	     12.41662278	      7.38314403	     -6.34952583	     42.92642672	     44.47651750	      1.56011000	    -55.40717364	     23.05240734
      0.11320755	      0.68694064	     -5.12933474	    116.58761087	      0.30543461	      0.65394556	      0.87439821	     -3.57844043	     -3.25153061	    -11.24972223	      3.81115349	      0.06651718	     28.87679405	     12.57430618	      0.00000000	     -2.54550302	      3.33106618	      6.62221349	      3.23828067	      0.05651866	     22.12568723	     -0.65880852	      0.00000000	      0.09420610	     -0.12430547	     -1.55559304	      0.17495015	     -0.16532627	     -1.65281760	      0.15477120	     -0.30223632	     -1.65281760	      0.10766815	     -0.30223632	     -1.36114391	      0.08747978	     -0.25348371	     -1.26391934	      0.05382937	     -0.19254917	     -1.16669478	      0.67290475	     -1.40616833	     -8.65174180	      0.00000000	      0.00000000	     25.06026757	      1.07695140	      3.53537543	     13.87776203	     -2.56768776	     74.21169532	     33.69179256	     67.53267071	     -0.16803621	     11.67673402	      7.37776668	     -6.28360176	     42.80749440	     44.68889048	      1.48465511	    -55.11244852	     24.01966808
